<?xml version="1.0" encoding="UTF-8"?>
<svg width="125px" height="56px" viewBox="0 0 125 56" version="1.1" xmlns="http://www.w3.org/2000/svg" xmlns:xlink="http://www.w3.org/1999/xlink">
    <!-- Generator: Sketch 43.2 (39069) - http://www.bohemiancoding.com/sketch -->
    <title>Logo</title>
    <desc>Created with Sketch.</desc>
    <defs></defs>
    <g id="Page-1" stroke="none" stroke-width="1" fill="none" fill-rule="evenodd">
        <g id="Homepage" transform="translate(-40.000000, -40.000000)">
            <g id="Header" transform="translate(40.000000, 40.000000)">
                <g id="Top">
                    <g id="Logo">
                        <path d="M3.52693294,20.8225614 L3.52693294,33.0035301 L0,33.0035301 L0,1.1951139 L11.7259069,1.1951139 C15.0849075,1.1951139 17.6117541,1.97652672 19.3065225,3.53937579 C21.001291,5.10222486 21.8486625,7.53839422 21.8486625,10.847957 C21.8486625,15.7510129 19.9096322,18.8306987 16.0315134,20.0871067 L22.1234885,33.0035301 L18.2301209,33.0035301 L12.5045804,20.8225614 L3.52693294,20.8225614 Z M11.7717112,17.6968789 C16.0773392,17.6968789 18.2301209,15.4675541 18.2301209,11.0088377 C18.2301209,6.55012121 16.0620713,4.32079641 11.7259069,4.32079641 L3.52693294,4.32079641 L3.52693294,17.6968789 L11.7717112,17.6968789 Z M27.6200073,33.0035301 L27.6200073,10.0205704 L31.0553316,10.0205704 L31.0553316,33.0035301 L27.6200073,33.0035301 Z M27.6200073,4.82642153 L27.6200073,0.827386548 L31.0553316,0.827386548 L31.0553316,4.82642153 L27.6200073,4.82642153 Z M47.7739099,9.56091122 C50.8580831,9.56091122 53.0184988,10.4419159 54.2552217,12.2039516 C55.4919446,13.9659873 56.1102968,17.053334 56.1102968,21.4660843 C56.1102968,25.8788346 55.3392651,28.9815032 53.7971785,30.774183 C52.2550918,32.5668628 49.4228861,33.4631893 45.3004764,33.4631893 C44.0179489,33.4631893 41.8957031,33.3406147 38.9336753,33.0954619 L37.6511543,32.9575641 L37.6511543,0 L41.0406742,0 L41.0406742,11.1697184 C43.3614383,10.0971749 45.6058277,9.56091122 47.7739099,9.56091122 Z M45.254672,30.3834727 C48.2472362,30.3834727 50.2244364,29.7016517 51.186332,28.3379893 C52.1482276,26.9743268 52.6291682,24.6683929 52.6291682,21.4201184 C52.6291682,18.1718439 52.2474693,15.8965536 51.4840601,14.5941794 C50.7206509,13.2918052 49.3618029,12.6406278 47.4074753,12.6406278 C45.6363659,12.6406278 43.8194792,12.9777078 41.9567607,13.651878 L41.0406742,13.9736395 L41.0406742,30.1536431 C43.0255382,30.3068636 44.4301901,30.3834727 45.254672,30.3834727 Z M62.9809454,12.3648323 C64.4772275,10.4955422 67.0040741,9.56091122 70.561561,9.56091122 C74.119048,9.56091122 76.6382606,10.4955422 78.1192745,12.3648323 C79.6002883,14.2341224 80.3407842,17.2678427 80.3407842,21.4660843 C80.3407842,25.6643259 79.6384582,28.7133681 78.2337853,30.6133023 C76.8291123,32.5132364 74.2640958,33.4631893 70.5386588,33.4631893 C66.8132219,33.4631893 64.2482054,32.5132364 62.8435324,30.6133023 C61.4388595,28.7133681 60.7365335,25.6643259 60.7365335,21.4660843 C60.7365335,17.2678427 61.4846633,14.2341224 62.9809454,12.3648323 Z M65.4772811,28.4529041 C66.2864948,29.8012444 67.9812379,30.4754045 70.561561,30.4754045 C73.1418842,30.4754045 74.8289932,29.8089053 75.6229388,28.475887 C76.4168844,27.1428687 76.8138512,24.7909693 76.8138512,21.4201184 C76.8138512,18.0492675 76.3710805,15.7280117 75.4855258,14.4562816 C74.5999711,13.1845515 72.9586659,12.548696 70.561561,12.548696 C68.1644561,12.548696 66.5155169,13.1845515 65.614694,14.4562816 C64.7138712,15.7280117 64.2634665,18.0416066 64.2634665,21.3971354 C64.2634665,24.7526643 64.6680673,27.1045637 65.4772811,28.4529041 Z M93.1201905,12.6406278 C89.7917264,12.6406278 88.1275192,13.8050861 88.1275192,16.1340377 C88.1275192,17.2065812 88.5092181,17.9650112 89.2726273,18.4093507 C90.0360366,18.8536901 91.7765835,19.3133447 94.4943203,19.7883283 C97.2120571,20.2633118 99.1358194,20.929811 100.265665,21.7878458 C101.395511,22.6458805 101.960425,24.2546716 101.960425,26.6142673 C101.960425,28.9738629 101.204661,30.7052286 99.693111,31.8084162 C98.1815608,32.9116037 95.9753412,33.4631893 93.0743862,33.4631893 C91.1811314,33.4631893 88.9520099,33.2486838 86.3869549,32.8196664 L85.0128252,32.5898368 L85.1960425,29.602052 C88.6771885,30.1230017 91.3032768,30.3834727 93.0743862,30.3834727 C94.8454956,30.3834727 96.1967096,30.100019 97.1280689,29.5331032 C98.0594281,28.9661873 98.5251008,28.0162345 98.5251008,26.6832162 C98.5251008,25.3501978 98.1281339,24.4462105 97.3341883,23.9712269 C96.5402428,23.4962434 94.7996959,23.0442497 92.1124954,22.6152323 C89.425295,22.1862149 87.5168006,21.5580203 86.3869549,20.7306296 C85.2571093,19.9032389 84.6921949,18.3710569 84.6921949,16.1340377 C84.6921949,13.8970184 85.4784946,12.2422619 87.0511176,11.1697184 C88.6237406,10.0971749 90.5856729,9.56091122 92.9369733,9.56091122 C94.7996917,9.56091122 97.1356889,9.77541669 99.9450348,10.2044341 L101.227556,10.4342637 L101.135947,13.3760825 C97.7464103,12.8857769 95.0745181,12.6406278 93.1201905,12.6406278 Z M122.801392,30.1536431 L124.129718,30.0157453 L124.221326,32.7277345 C120.74018,33.2180401 117.762929,33.4631893 115.289483,33.4631893 C111.991556,33.4631893 109.655558,32.5055755 108.281422,30.5903193 C106.907285,28.6750631 106.220227,25.6949691 106.220227,21.649948 C106.220227,13.5905498 109.41123,9.56091122 115.793331,9.56091122 C118.877504,9.56091122 121.182965,10.426594 122.709784,12.1579857 C124.236602,13.8893773 125,16.6090003 125,20.3169363 L124.816783,22.9369937 L109.701356,22.9369937 C109.701356,25.480454 110.159394,27.3650378 111.075486,28.5908018 C111.991577,29.8165658 113.587078,30.4294386 115.862037,30.4294386 C118.136997,30.4294386 120.450092,30.3375077 122.801392,30.1536431 Z M121.564676,20.1790386 C121.564676,17.3597814 121.114271,15.3679448 120.213448,14.2034691 C119.312625,13.0389933 117.846902,12.4567641 115.816233,12.4567641 C113.785565,12.4567641 112.258769,13.0696369 111.235801,14.2954009 C110.212832,15.5211649 109.686088,17.4823578 109.655551,20.1790386 L121.564676,20.1790386 Z" id="Ribose" fill="#000000"></path>
                        <path d="M5.28270382,51.2849933 C5.78170831,51.2849933 6.23992191,51.1911013 6.65735836,51.0033144 C7.07479481,50.8155276 7.4322494,50.5603339 7.72973284,50.2377257 C8.02721629,49.9151175 8.25992162,49.5371419 8.42785583,49.1037876 C8.59579003,48.6704334 8.67975587,48.2081957 8.67975587,47.7170609 L8.67975587,47.6881707 C8.67975587,47.1970359 8.59579003,46.7323907 8.42785583,46.2942214 C8.25992162,45.8560521 8.02481726,45.475669 7.7225357,45.1530608 C7.42025413,44.8304526 7.0580015,44.5728514 6.63576693,44.3802495 C6.21353236,44.1876476 5.75291974,44.0913481 5.25391525,44.0913481 C4.75491076,44.0913481 4.29669716,44.1852401 3.87926071,44.373027 C3.46182426,44.5608139 3.10436967,44.8160076 2.80688623,45.1386157 C2.50940278,45.4612239 2.27669745,45.8391995 2.10876324,46.2725538 C1.94082904,46.7059081 1.8568632,47.1681457 1.8568632,47.6592806 L1.8568632,47.6881707 C1.8568632,48.1793056 1.94082904,48.6439507 2.10876324,49.08212 C2.27669745,49.5202894 2.51180181,49.9006724 2.81408337,50.2232806 C3.11636494,50.5458888 3.47861757,50.80349 3.90085214,50.9960919 C4.32308671,51.1886938 4.78369933,51.2849933 5.28270382,51.2849933 Z M5.25391525,52.9172863 C4.47661979,52.9172863 3.76650867,52.7800595 3.12356057,52.5056018 C2.48061248,52.2311441 1.92883694,51.8579835 1.46821741,51.3861088 C1.00759788,50.9142341 0.647744271,50.3629195 0.388645785,49.7321482 C0.1295473,49.101377 0,48.4296879 0,47.7170609 L0,47.6881707 C0,46.9755437 0.1295473,46.3038546 0.388645785,45.6730834 C0.647744271,45.0423121 1.01239593,44.4885899 1.4826117,44.0119002 C1.95282747,43.5352105 2.50940105,43.1572349 3.15234915,42.8779622 C3.79529724,42.5986894 4.50540837,42.4590551 5.28270382,42.4590551 C6.05999928,42.4590551 6.7701104,42.5962819 7.4130585,42.8707396 C8.05600659,43.1451974 8.60778213,43.518358 9.06840166,43.9902326 C9.52902119,44.4621073 9.8888748,45.013422 10.1479733,45.6441932 C10.4070718,46.2749645 10.5366191,46.9466535 10.5366191,47.6592806 L10.5366191,47.6881707 C10.5366191,48.4007978 10.4070718,49.0724868 10.1479733,49.7032581 C9.8888748,50.3340293 9.52422314,50.8877515 9.05400737,51.3644412 C8.5837916,51.8411309 8.02721802,52.2191065 7.38426992,52.4983793 C6.74132183,52.777652 6.0312107,52.9172863 5.25391525,52.9172863 Z M16.3950944,51.3861088 C16.6925779,51.3861088 16.9732637,51.3283291 17.2371603,51.212768 C17.5010569,51.0972068 17.7313632,50.9359051 17.9280861,50.7288581 C18.1248091,50.5218111 18.2807456,50.2666174 18.3959005,49.9632694 C18.5110554,49.6599214 18.568632,49.3204656 18.568632,48.9448919 L18.568632,48.9160017 C18.568632,48.5500581 18.5110554,48.2154173 18.3959005,47.9120693 C18.2807456,47.6087213 18.1248091,47.3511201 17.9280861,47.139258 C17.7313632,46.9273959 17.5010569,46.7636868 17.2371603,46.6481256 C16.9732637,46.5325645 16.6925779,46.4747848 16.3950944,46.4747848 C16.097611,46.4747848 15.8145261,46.5325645 15.5458314,46.6481256 C15.2771367,46.7636868 15.0420323,46.9298034 14.8405113,47.1464806 C14.6389902,47.3631577 14.4782556,47.6207589 14.3583026,47.9192919 C14.2383496,48.2178248 14.178374,48.5500581 14.178374,48.9160017 L14.178374,48.9448919 C14.178374,49.3108355 14.2383496,49.6454763 14.3583026,49.9488243 C14.4782556,50.2521723 14.6389902,50.5097735 14.8405113,50.7216356 C15.0420323,50.9334977 15.2771367,51.0972068 15.5458314,51.212768 C15.8145261,51.3283291 16.097611,51.3861088 16.3950944,51.3861088 Z M12.479848,45.1169481 L14.2215569,45.1169481 L14.2215569,46.3881144 C14.4998479,45.9836504 14.8453073,45.6441946 15.2579456,45.3697369 C15.670584,45.0952792 16.1839751,44.9580524 16.7981345,44.9580524 C17.2491578,44.9580524 17.6857802,45.0447219 18.1080147,45.2180636 C18.5302493,45.3914053 18.9068961,45.646599 19.2379664,45.9836524 C19.5690367,46.3207057 19.8353283,46.7347936 20.0368494,47.2259285 C20.2383704,47.7170633 20.3391294,48.2804154 20.3391294,48.9160017 L20.3391294,48.9448919 C20.3391294,49.5804782 20.2407694,50.1438303 20.0440465,50.6349651 C19.8473236,51.1261 19.583431,51.5401879 19.2523607,51.8772412 C18.9212904,52.2142946 18.5422446,52.4694882 18.1152119,52.64283 C17.6881792,52.8161717 17.2491578,52.9028412 16.7981345,52.9028412 C16.1743789,52.9028412 15.6561897,52.7680219 15.2435514,52.4983793 C14.830913,52.2287366 14.4902516,51.9157632 14.2215569,51.5594497 L14.2215569,55.0551568 L12.479848,55.0551568 L12.479848,45.1169481 Z M27.3347536,48.3959792 C27.3059648,48.1167064 27.2435902,47.8542903 27.1476278,47.6087228 C27.0516654,47.3631554 26.9221181,47.1512965 26.758982,46.9731397 C26.595846,46.794983 26.401525,46.6529412 26.1760134,46.5470101 C25.9505017,46.4410791 25.6938061,46.3881144 25.4059189,46.3881144 C24.8685295,46.3881144 24.42471,46.5734909 24.0744473,46.9442496 C23.7241845,47.3150082 23.5106713,47.7989133 23.4339014,48.3959792 L27.3347536,48.3959792 Z M25.607439,52.9172863 C25.0604533,52.9172863 24.5494611,52.8209868 24.0744473,52.6283849 C23.5994334,52.435783 23.1868012,52.1661444 22.8365385,51.8194609 C22.4862757,51.4727775 22.2103879,51.0562821 22.0088669,50.5699623 C21.8073458,50.0836425 21.7065868,49.5467728 21.7065868,48.9593369 L21.7065868,48.9304468 C21.7065868,48.3815314 21.7977497,47.866329 21.9800783,47.3848242 C22.1624069,46.9033195 22.4191024,46.4820091 22.7501727,46.1208806 C23.081243,45.759752 23.4722839,45.4756684 23.9233072,45.2686214 C24.3743305,45.0615743 24.8733275,44.9580524 25.4203132,44.9580524 C26.0248764,44.9580524 26.5550607,45.0687968 27.0108821,45.290289 C27.4667035,45.5117812 27.8457493,45.8103097 28.1480309,46.1858834 C28.4503124,46.5614571 28.6782197,46.9972124 28.8317596,47.4931623 C28.9852994,47.9891122 29.0620682,48.511537 29.0620682,49.0604524 C29.0620682,49.1374932 29.0596691,49.2169403 29.054871,49.2987961 C29.0500729,49.3806519 29.0428758,49.464914 29.0332796,49.5515848 L23.4482957,49.5515848 C23.5442581,50.177541 23.7913576,50.6566311 24.1896016,50.9888694 C24.5878455,51.3211077 25.0700494,51.4872243 25.6362275,51.4872243 C26.0680584,51.4872243 26.4423061,51.4101847 26.758982,51.2561032 C27.075658,51.1020217 27.3875311,50.8757178 27.6946108,50.5771849 L28.7166053,51.4872243 C28.3519481,51.9205786 27.9177248,52.2672568 27.4139222,52.5272694 C26.9101195,52.787282 26.3079645,52.9172863 25.607439,52.9172863 Z M30.8181713,45.1169481 L32.5598802,45.1169481 L32.5598802,46.3014439 C32.6846314,46.1184721 32.8213757,45.9475405 32.9701175,45.7886439 C33.1188592,45.6297474 33.2915889,45.4877056 33.4883118,45.3625143 C33.6850348,45.2373231 33.9009469,45.1386161 34.1360548,45.0663904 C34.3711627,44.9941647 34.6374544,44.9580524 34.9349378,44.9580524 C35.7985994,44.9580524 36.4655281,45.222876 36.9357439,45.7525312 C37.4059597,46.2821865 37.641064,46.9948028 37.641064,47.8904017 L37.641064,52.7439455 L35.8993551,52.7439455 L35.8993551,48.4104243 C35.8993551,47.8133583 35.7578127,47.3535282 35.4747236,47.03092 C35.1916345,46.7083118 34.7909975,46.5470101 34.2728006,46.5470101 C33.7641998,46.5470101 33.3515677,46.7131268 33.0348918,47.0453651 C32.7182158,47.3776034 32.5598802,47.8422485 32.5598802,48.4393144 L32.5598802,52.7439455 L30.8181713,52.7439455 L30.8181713,45.1169481 Z M47.7890373,52.8883962 C47.0117419,52.8883962 46.2680444,52.7559843 45.5579226,52.4911567 C44.8478008,52.2263291 44.1904682,51.8194637 43.5859051,51.2705482 L44.6510825,49.999382 C45.1404907,50.4231062 45.6346897,50.7481171 46.1336942,50.9744243 C46.6326986,51.2007315 47.1988683,51.3138835 47.8322202,51.3138835 C48.3792059,51.3138835 48.8134292,51.1983241 49.1349033,50.9672018 C49.4563773,50.7360795 49.6171119,50.4279211 49.6171119,50.0427172 L49.6171119,50.0138271 C49.6171119,49.8308553 49.5859246,49.6695536 49.5235491,49.5299172 C49.4611735,49.3902809 49.3460203,49.257869 49.1780861,49.1326778 C49.0101519,49.0074865 48.7798456,48.8919271 48.4871603,48.7859961 C48.194475,48.680065 47.8130301,48.5741356 47.3428144,48.4682045 C46.8054249,48.3430133 46.3280191,48.2009715 45.9105827,48.042075 C45.4931462,47.8831784 45.1428887,47.6905794 44.8597996,47.4642721 C44.5767105,47.2379649 44.3607984,46.9611038 44.2120567,46.6336806 C44.0633149,46.3062573 43.9889452,45.9114293 43.9889452,45.4491848 L43.9889452,45.4202946 C43.9889452,44.9869403 44.0753101,44.5897049 44.2480424,44.2285763 C44.4207747,43.8674477 44.6582781,43.5592893 44.9605596,43.3040918 C45.2628412,43.0488942 45.6250939,42.8490728 46.0473284,42.7046213 C46.469563,42.5601699 46.9301756,42.4879453 47.4291801,42.4879453 C48.1680906,42.4879453 48.8326203,42.5962822 49.422789,42.8129594 C50.0129578,43.0296365 50.5671324,43.3450174 51.0853293,43.7591115 L50.1353063,45.1025031 C49.6746868,44.7654497 49.2188722,44.5078485 48.7678489,44.3296918 C48.3168256,44.151535 47.8610111,44.062458 47.4003915,44.062458 C46.8821946,44.062458 46.4791585,44.1780174 46.1912713,44.4091397 C45.9033841,44.640262 45.7594427,44.9243455 45.7594427,45.2613988 L45.7594427,45.290289 C45.7594427,45.4828909 45.793029,45.6538225 45.8602027,45.803089 C45.9273764,45.9523555 46.0497266,46.0871748 46.227257,46.207551 C46.4047875,46.3279272 46.6494879,46.4410791 46.9613657,46.5470101 C47.2732435,46.6529412 47.6690825,46.7636856 48.1488945,46.8792468 C48.6766877,47.0140681 49.1444974,47.1633323 49.5523376,47.327044 C49.9601778,47.4907556 50.2984402,47.6905771 50.567135,47.9265144 C50.8358297,48.1624517 51.0397467,48.4369053 51.1788922,48.7498834 C51.3180377,49.0628615 51.3876094,49.4263922 51.3876094,49.8404863 L51.3876094,49.8693764 C51.3876094,50.3412511 51.2988455,50.7649689 51.1213151,51.1405426 C50.9437846,51.5161163 50.6966851,51.8339047 50.3800092,52.0939173 C50.0633333,52.3539299 49.6842875,52.5513438 49.2428604,52.6861652 C48.8014334,52.8209865 48.3168305,52.8883962 47.7890373,52.8883962 Z M56.9150161,51.4005539 C57.270077,51.4005539 57.5891472,51.3355517 57.8722363,51.2055454 C58.1553254,51.0755391 58.3976268,50.8997925 58.5991479,50.6783004 C58.8006689,50.4568082 58.9542064,50.199207 59.0597651,49.9054891 C59.1653237,49.6117712 59.2181023,49.3012052 59.2181023,48.973782 L59.2181023,48.9448919 C59.2181023,48.6078385 59.1605257,48.2900502 59.0453708,47.9915172 C58.9302159,47.6929843 58.7694813,47.4329756 58.5631621,47.2114834 C58.356843,46.9899912 58.1121425,46.8142446 57.8290534,46.6842383 C57.5459643,46.554232 57.2316922,46.4892299 56.8862275,46.4892299 C56.5407629,46.4892299 56.2264907,46.554232 55.9434017,46.6842383 C55.6603126,46.8142446 55.4180111,46.9875837 55.2164901,47.2042609 C55.0149691,47.420938 54.8614315,47.6785392 54.7558729,47.9770721 C54.6503142,48.2756051 54.5975357,48.5885785 54.5975357,48.9160017 L54.5975357,48.9448919 C54.5975357,49.2819452 54.6551123,49.5973261 54.7702672,49.891044 C54.885422,50.1847619 55.0461567,50.4447706 55.2524758,50.6710778 C55.458795,50.8973851 55.7034954,51.0755391 55.9865845,51.2055454 C56.2696736,51.3355517 56.5791477,51.4005539 56.9150161,51.4005539 Z M56.8862275,52.9172863 C56.3104531,52.9172863 55.7754708,52.8137643 55.2812644,52.6067173 C54.787058,52.3996702 54.3600317,52.1179942 54.0001727,51.7616807 C53.6403137,51.4053671 53.3596279,50.9864643 53.1581069,50.5049595 C52.9565858,50.0234547 52.8558268,49.5130673 52.8558268,48.973782 L52.8558268,48.9448919 C52.8558268,48.3959764 52.9589848,47.8807741 53.165304,47.3992693 C53.3716232,46.9177645 53.654708,46.4964542 54.014567,46.1353256 C54.374426,45.774197 54.8014523,45.487706 55.2956587,45.2758439 C55.7898651,45.0639818 56.3296455,44.9580524 56.9150161,44.9580524 C57.5003868,44.9580524 58.0401672,45.0615743 58.5343736,45.2686214 C59.0285799,45.4756684 59.4556062,45.759752 59.8154652,46.1208806 C60.1753242,46.4820091 60.45601,46.900912 60.6575311,47.3776017 C60.8590521,47.8542914 60.9598111,48.3670863 60.9598111,48.9160017 L60.9598111,48.9448919 C60.9598111,49.4841772 60.8566531,49.9945646 60.6503339,50.4760694 C60.4440148,50.9575741 60.1609299,51.3788845 59.8010709,51.740013 C59.4412119,52.1011416 59.0117866,52.3876327 58.5127821,52.5994948 C58.0137776,52.8113568 57.4715982,52.9172863 56.8862275,52.9172863 Z M65.3500691,52.9028412 C64.4864075,52.9028412 63.8194788,52.6380176 63.349263,52.1083623 C62.8790472,51.5787071 62.6439429,50.8660907 62.6439429,49.9704919 L62.6439429,45.1169481 L64.3856518,45.1169481 L64.3856518,49.4504693 C64.3856518,50.0475352 64.5271942,50.5073654 64.8102833,50.8299736 C65.0933724,51.1525818 65.4940094,51.3138835 66.0122064,51.3138835 C66.5208071,51.3138835 66.9334392,51.1477668 67.2501152,50.8155285 C67.5667911,50.4832902 67.7251267,50.0186451 67.7251267,49.4215792 L67.7251267,45.1169481 L69.4668356,45.1169481 L69.4668356,52.7439455 L67.7251267,52.7439455 L67.7251267,51.5594497 C67.4756244,51.9253933 67.1637513,52.2407742 66.7894979,52.5056018 C66.4152446,52.7704294 65.9354397,52.9028412 65.3500691,52.9028412 Z M71.6547674,45.1169481 L73.3964763,45.1169481 L73.3964763,46.8359116 C73.6363823,46.2581058 73.9770437,45.7958682 74.4184708,45.4491848 C74.8598978,45.1025013 75.4164714,44.9436071 76.0882082,44.9724974 L76.0882082,46.8214665 L75.9874482,46.8214665 C75.6035986,46.8214665 75.2533411,46.8840612 74.9366651,47.0092524 C74.6199892,47.1344436 74.3465005,47.3222277 74.1161907,47.5726102 C73.8858809,47.8229926 73.7083531,48.1383735 73.583602,48.5187623 C73.4588509,48.899151 73.3964763,49.3397213 73.3964763,49.8404863 L73.3964763,52.7439455 L71.6547674,52.7439455 L71.6547674,45.1169481 Z M81.1118148,52.9172863 C80.5456367,52.9172863 80.0226494,52.8137643 79.5428374,52.6067173 C79.0630254,52.3996702 78.6479942,52.1179942 78.2977315,51.7616807 C77.9474687,51.4053671 77.6739799,50.9864643 77.477257,50.5049595 C77.2805341,50.0234547 77.1821741,49.5130673 77.1821741,48.973782 L77.1821741,48.9448919 C77.1821741,48.4056065 77.2805341,47.8928117 77.477257,47.4064918 C77.6739799,46.920172 77.9474687,46.4964542 78.2977315,46.1353256 C78.6479942,45.774197 79.0654244,45.487706 79.5500345,45.2758439 C80.0346447,45.0639818 80.5600309,44.9580524 81.1262091,44.9580524 C81.8459271,44.9580524 82.4432841,45.0784267 82.918298,45.3191791 C83.3933119,45.5599315 83.8083431,45.8777199 84.163404,46.2725538 L83.0838323,47.4426045 C82.8151376,47.1633318 82.5296537,46.9346204 82.2273722,46.7564637 C81.9250906,46.5783069 81.5532419,46.4892299 81.1118148,46.4892299 C80.7951389,46.4892299 80.502458,46.554232 80.2337632,46.6842383 C79.9650685,46.8142446 79.7347622,46.9875837 79.5428374,47.2042609 C79.3509126,47.420938 79.1997741,47.6785392 79.0894173,47.9770721 C78.9790606,48.2756051 78.923883,48.5885785 78.923883,48.9160017 L78.923883,48.9448919 C78.923883,49.2819452 78.9790606,49.5997336 79.0894173,49.8982665 C79.1997741,50.1967995 79.3557106,50.4568082 79.5572317,50.6783004 C79.7587527,50.8997925 79.9986551,51.0755391 80.2769461,51.2055454 C80.5552371,51.3355517 80.8623122,51.4005539 81.1981806,51.4005539 C81.6108189,51.4005539 81.9730715,51.3114768 82.2849493,51.1333201 C82.5968271,50.9551633 82.8919071,50.726452 83.1701981,50.4471792 L84.2209811,51.4872243 C83.8467277,51.9109485 83.4197015,52.2552192 82.9398895,52.5200469 C82.4600774,52.7848745 81.8507253,52.9172863 81.1118148,52.9172863 Z M91.0294795,48.3959792 C91.0006908,48.1167064 90.9383162,47.8542903 90.8423538,47.6087228 C90.7463914,47.3631554 90.6168441,47.1512965 90.453708,46.9731397 C90.2905719,46.794983 90.0962509,46.6529412 89.8707393,46.5470101 C89.6452276,46.4410791 89.3885321,46.3881144 89.1006449,46.3881144 C88.5632554,46.3881144 88.119436,46.5734909 87.7691732,46.9442496 C87.4189104,47.3150082 87.2053973,47.7989133 87.1286274,48.3959792 L91.0294795,48.3959792 Z M89.3021649,52.9172863 C88.7551792,52.9172863 88.2441871,52.8209868 87.7691732,52.6283849 C87.2941593,52.435783 86.8815272,52.1661444 86.5312644,51.8194609 C86.1810016,51.4727775 85.9051139,51.0562821 85.7035928,50.5699623 C85.5020718,50.0836425 85.4013128,49.5467728 85.4013128,48.9593369 L85.4013128,48.9304468 C85.4013128,48.3815314 85.4924757,47.866329 85.6748042,47.3848242 C85.8571328,46.9033195 86.1138284,46.4820091 86.4448987,46.1208806 C86.775969,45.759752 87.1670099,45.4756684 87.6180332,45.2686214 C88.0690565,45.0615743 88.5680535,44.9580524 89.1150392,44.9580524 C89.7196023,44.9580524 90.2497866,45.0687968 90.705608,45.290289 C91.1614294,45.5117812 91.5404752,45.8103097 91.8427568,46.1858834 C92.1450384,46.5614571 92.3729456,46.9972124 92.5264855,47.4931623 C92.6800253,47.9891122 92.7567941,48.511537 92.7567941,49.0604524 C92.7567941,49.1374932 92.7543951,49.2169403 92.749597,49.2987961 C92.7447988,49.3806519 92.7376018,49.464914 92.7280055,49.5515848 L87.1430216,49.5515848 C87.2389841,50.177541 87.4860835,50.6566311 87.8843275,50.9888694 C88.2825715,51.3211077 88.7647753,51.4872243 89.3309535,51.4872243 C89.7627843,51.4872243 90.137032,51.4101847 90.453708,51.2561032 C90.7703839,51.1020217 91.082257,50.8757178 91.3893367,50.5771849 L92.4113312,51.4872243 C92.0466741,51.9205786 91.6124507,52.2672568 91.1086481,52.5272694 C90.6048455,52.787282 90.0026904,52.9172863 89.3021649,52.9172863 Z M102.559304,52.8883962 C101.782009,52.8883962 101.038312,52.7559843 100.32819,52.4911567 C99.618068,52.2263291 98.9607354,51.8194637 98.3561723,51.2705482 L99.4213496,49.999382 C99.9107579,50.4231062 100.404957,50.7481171 100.903961,50.9744243 C101.402966,51.2007315 101.969135,51.3138835 102.602487,51.3138835 C103.149473,51.3138835 103.583696,51.1983241 103.90517,50.9672018 C104.226644,50.7360795 104.387379,50.4279211 104.387379,50.0427172 L104.387379,50.0138271 C104.387379,49.8308553 104.356192,49.6695536 104.293816,49.5299172 C104.231441,49.3902809 104.116287,49.257869 103.948353,49.1326778 C103.780419,49.0074865 103.550113,48.8919271 103.257427,48.7859961 C102.964742,48.680065 102.583297,48.5741356 102.113082,48.4682045 C101.575692,48.3430133 101.098286,48.2009715 100.68085,48.042075 C100.263413,47.8831784 99.9131559,47.6905794 99.6300668,47.4642721 C99.3469777,47.2379649 99.1310655,46.9611038 98.9823238,46.6336806 C98.8335821,46.3062573 98.7592123,45.9114293 98.7592123,45.4491848 L98.7592123,45.4202946 C98.7592123,44.9869403 98.8455772,44.5897049 99.0183095,44.2285763 C99.1910419,43.8674477 99.4285452,43.5592893 99.7308268,43.3040918 C100.033108,43.0488942 100.395361,42.8490728 100.817596,42.7046213 C101.23983,42.5601699 101.700443,42.4879453 102.199447,42.4879453 C102.938358,42.4879453 103.602887,42.5962822 104.193056,42.8129594 C104.783225,43.0296365 105.3374,43.3450174 105.855596,43.7591115 L104.905573,45.1025031 C104.444954,44.7654497 103.989139,44.5078485 103.538116,44.3296918 C103.087093,44.151535 102.631278,44.062458 102.170659,44.062458 C101.652462,44.062458 101.249426,44.1780174 100.961538,44.4091397 C100.673651,44.640262 100.52971,44.9243455 100.52971,45.2613988 L100.52971,45.290289 C100.52971,45.4828909 100.563296,45.6538225 100.63047,45.803089 C100.697644,45.9523555 100.819994,46.0871748 100.997524,46.207551 C101.175055,46.3279272 101.419755,46.4410791 101.731633,46.5470101 C102.043511,46.6529412 102.43935,46.7636856 102.919162,46.8792468 C103.446955,47.0140681 103.914765,47.1633323 104.322605,47.327044 C104.730445,47.4907556 105.068707,47.6905771 105.337402,47.9265144 C105.606097,48.1624517 105.810014,48.4369053 105.949159,48.7498834 C106.088305,49.0628615 106.157877,49.4263922 106.157877,49.8404863 L106.157877,49.8693764 C106.157877,50.3412511 106.069113,50.7649689 105.891582,51.1405426 C105.714052,51.5161163 105.466952,51.8339047 105.150276,52.0939173 C104.8336,52.3539299 104.454555,52.5513438 104.013128,52.6861652 C103.571701,52.8209865 103.087098,52.8883962 102.559304,52.8883962 Z M108.144288,45.1169481 L109.885997,45.1169481 L109.885997,52.7439455 L108.144288,52.7439455 L108.144288,45.1169481 Z M108.072317,42.2857143 L109.943574,42.2857143 L109.943574,43.9468974 L108.072317,43.9468974 L108.072317,42.2857143 Z M114.708084,52.8739511 C114.391408,52.8739511 114.098727,52.8354313 113.830032,52.7583905 C113.561338,52.6813498 113.328632,52.5561604 113.131909,52.3828187 C112.935186,52.209477 112.784048,51.9807656 112.678489,51.6966778 C112.572931,51.41259 112.520152,51.0586893 112.520152,50.6349651 L112.520152,46.6192355 L111.555735,46.6192355 L111.555735,45.1169481 L112.520152,45.1169481 L112.520152,43.0224129 L114.261861,43.0224129 L114.261861,45.1169481 L116.30585,45.1169481 L116.30585,46.6192355 L114.261861,46.6192355 L114.261861,50.3605088 C114.261861,50.6975621 114.343428,50.9407184 114.506564,51.0899849 C114.6697,51.2392513 114.900006,51.3138835 115.19749,51.3138835 C115.571743,51.3138835 115.931597,51.2272139 116.277061,51.0538722 L116.277061,52.4839342 C116.056348,52.6091254 115.821243,52.7054249 115.571741,52.7728356 C115.322239,52.8402463 115.034356,52.8739511 114.708084,52.8739511 Z M123.272685,48.3959792 C123.243897,48.1167064 123.181522,47.8542903 123.08556,47.6087228 C122.989597,47.3631554 122.86005,47.1512965 122.696914,46.9731397 C122.533778,46.794983 122.339457,46.6529412 122.113945,46.5470101 C121.888434,46.4410791 121.631738,46.3881144 121.343851,46.3881144 C120.806461,46.3881144 120.362642,46.5734909 120.012379,46.9442496 C119.662116,47.3150082 119.448603,47.7989133 119.371833,48.3959792 L123.272685,48.3959792 Z M121.545371,52.9172863 C120.998385,52.9172863 120.487393,52.8209868 120.012379,52.6283849 C119.537365,52.435783 119.124733,52.1661444 118.77447,51.8194609 C118.424208,51.4727775 118.14832,51.0562821 117.946799,50.5699623 C117.745278,50.0836425 117.644519,49.5467728 117.644519,48.9593369 L117.644519,48.9304468 C117.644519,48.3815314 117.735682,47.866329 117.91801,47.3848242 C118.100339,46.9033195 118.357034,46.4820091 118.688105,46.1208806 C119.019175,45.759752 119.410216,45.4756684 119.861239,45.2686214 C120.312262,45.0615743 120.811259,44.9580524 121.358245,44.9580524 C121.962808,44.9580524 122.492993,45.0687968 122.948814,45.290289 C123.404635,45.5117812 123.783681,45.8103097 124.085963,46.1858834 C124.388244,46.5614571 124.616152,46.9972124 124.769691,47.4931623 C124.923231,47.9891122 125,48.511537 125,49.0604524 C125,49.1374932 124.997601,49.2169403 124.992803,49.2987961 C124.988005,49.3806519 124.980808,49.464914 124.971211,49.5515848 L119.386228,49.5515848 C119.48219,50.177541 119.729289,50.6566311 120.127533,50.9888694 C120.525777,51.3211077 121.007981,51.4872243 121.574159,51.4872243 C122.00599,51.4872243 122.380238,51.4101847 122.696914,51.2561032 C123.01359,51.1020217 123.325463,50.8757178 123.632543,50.5771849 L124.654537,51.4872243 C124.28988,51.9205786 123.855657,52.2672568 123.351854,52.5272694 C122.848051,52.787282 122.245896,52.9172863 121.545371,52.9172863 Z" id="Open-Source-Site" fill="#1D66FA"></path>
                    </g>
                </g>
            </g>
        </g>
    </g>
</svg>